<mxfile host="app.diagrams.net" modified="2021-01-06T15:35:20.567Z" agent="5.0 (X11; Linux x86_64) AppleWebKit/537.36 (KHTML, like Gecko) Chrome/80.0.3987.132 Safari/537.36" etag="2Tt9zGPeNcULvPDWoVMf" version="14.0.1" type="github">
  <diagram id="g3FyaZbXRynfbKXaXmVP" name="心灵奇旅">
    <mxGraphModel dx="508" dy="538" grid="1" gridSize="10" guides="1" tooltips="1" connect="1" arrows="1" fold="1" page="1" pageScale="1" pageWidth="827" pageHeight="1169" math="0" shadow="0">
      <root>
        <mxCell id="0" />
        <mxCell id="1" parent="0" />
      </root>
    </mxGraphModel>
  </diagram>
</mxfile>
